<svg xmlns="http://www.w3.org/2000/svg" width="32" height="32" fill="none" viewBox="0 0 32 32"><path stroke="#2563EB" stroke-linecap="round" stroke-linejoin="round" stroke-width="2" d="M16 16C19.3137 16 22 13.3137 22 10C22 6.68629 19.3137 4 16 4C12.6863 4 10 6.68629 10 10C10 13.3137 12.6863 16 16 16Z"/><path stroke="#2563EB" stroke-linecap="round" stroke-linejoin="round" stroke-width="2" d="M8 28C8 24.1339 11.5817 21 16 21C20.4183 21 24 24.1339 24 28"/><path stroke="#2563EB" stroke-linecap="round" stroke-linejoin="round" stroke-width="2" d="M27 14C29.2091 14 31 12.2091 31 10C31 7.79086 29.2091 6 27 6"/><path stroke="#2563EB" stroke-linecap="round" stroke-linejoin="round" stroke-width="2" d="M5 14C2.79086 14 1 12.2091 1 10C1 7.79086 2.79086 6 5 6"/><path stroke="#2563EB" stroke-linecap="round" stroke-linejoin="round" stroke-width="2" d="M28 28C28 25.4742 27.1 23.1644 25.6 21.4"/><path stroke="#2563EB" stroke-linecap="round" stroke-linejoin="round" stroke-width="2" d="M4 28C4 25.4742 4.9 23.1644 6.4 21.4"/></svg>