<svg version="1.0" xmlns="http://www.w3.org/2000/svg"
 width="485.000000pt" height="534.000000pt" viewBox="0 0 485.000000 534.000000"
 preserveAspectRatio="xMidYMid meet">

<g transform="translate(0.000000,534.000000) scale(0.100000,-0.100000)"
fill="#ffffff" stroke="none">
<path d="M447 4783 c-4 -3 -7 -210 -7 -460 l0 -453 1411 0 c1273 0 1415 -2
1460 -16 27 -9 52 -20 55 -25 3 -5 13 -9 22 -9 18 0 112 -88 112 -105 0 -4 8
-17 17 -27 12 -14 17 -38 17 -96 1 -75 0 -78 -48 -151 -38 -59 -168 -226 -196
-251 -3 -3 -23 -27 -45 -55 -21 -27 -46 -57 -55 -65 -8 -8 -38 -42 -65 -75
-28 -33 -60 -71 -73 -86 l-23 -26 -372 -6 c-645 -12 -987 -20 -987 -24 0 -6
72 -109 173 -246 26 -36 47 -70 47 -75 0 -6 3 -12 8 -14 4 -1 46 -57 92 -123
46 -66 88 -121 92 -123 5 -2 8 -9 8 -15 0 -7 14 -28 30 -47 16 -19 30 -38 30
-42 0 -4 6 -13 13 -20 7 -7 65 -87 128 -177 62 -89 123 -176 134 -191 47 -65
251 -354 265 -374 18 -27 47 -68 75 -104 25 -33 167 -234 202 -287 14 -22 29
-42 33 -45 3 -3 44 -59 89 -125 46 -66 87 -121 92 -123 5 -2 9 -9 9 -15 0 -7
14 -28 30 -47 17 -19 33 -43 36 -52 3 -10 9 -18 13 -18 3 0 15 -15 26 -32 10
-18 39 -59 63 -90 l43 -58 544 0 c318 0 546 4 549 9 4 5 -4 22 -17 38 -29 34
-188 257 -203 284 -6 11 -20 30 -31 42 -11 12 -55 73 -99 136 -43 62 -89 127
-101 145 -13 17 -33 45 -45 62 -71 99 -206 292 -227 323 -13 20 -27 38 -31 41
-3 3 -44 58 -91 124 -46 65 -117 164 -156 220 -40 55 -73 105 -73 109 0 9 61
84 136 166 28 31 60 70 73 86 12 17 39 48 60 70 20 22 54 62 76 90 22 27 53
63 69 80 15 16 44 50 64 75 20 25 53 63 73 85 21 22 50 57 66 77 56 73 147
183 155 186 4 2 8 9 8 16 0 7 8 21 18 32 30 32 86 124 126 209 50 104 59 128
95 271 14 55 14 321 0 381 -39 164 -56 213 -109 323 -44 91 -81 153 -142 235
-46 63 -188 206 -212 214 -6 2 -22 13 -36 25 -24 19 -192 106 -250 129 -14 5
-33 13 -42 18 -10 5 -27 9 -37 9 -11 0 -23 5 -26 10 -3 6 -16 10 -28 10 -12 0
-41 7 -64 15 -22 8 -106 19 -185 25 -158 11 -2850 14 -2861 3z"/>
</g>
</svg>
