<?xml version="1.0" standalone="no"?>
<!DOCTYPE svg PUBLIC "-//W3C//DTD SVG 20010904//EN"
 "http://www.w3.org/TR/2001/REC-SVG-20010904/DTD/svg10.dtd">
<svg version="1.0" xmlns="http://www.w3.org/2000/svg"
 width="1280.000000pt" height="348.000000pt" viewBox="0 0 1280.000000 348.000000"
 preserveAspectRatio="xMidYMid meet">

<g transform="translate(0.000000,348.000000) scale(0.100000,-0.100000)"
fill="#000000" stroke="none">
<path d="M1395 3466 c-290 -58 -537 -256 -646 -517 l-32 -76 -52 -12 c-69 -15
-203 -81 -281 -136 -189 -135 -325 -370 -354 -612 -26 -214 41 -456 173 -626
l45 -58 -14 -52 c-23 -85 -33 -215 -23 -308 43 -424 393 -760 819 -786 52 -3
126 -1 164 5 l70 11 55 -52 c74 -70 135 -111 234 -157 111 -51 192 -70 322
-77 186 -9 354 34 513 134 153 95 300 277 351 436 9 25 18 37 31 37 11 0 56
14 102 30 273 100 479 331 550 618 30 120 29 303 -1 417 -27 102 -95 244 -153
317 l-45 57 20 73 c28 105 27 284 -1 400 -64 262 -240 478 -486 594 -140 66
-323 96 -470 75 l-79 -11 -56 53 c-103 98 -213 160 -358 203 -110 32 -290 41
-398 20z m317 -235 c79 -21 170 -62 226 -104 l32 -24 -359 -208 c-198 -114
-370 -218 -383 -232 l-23 -25 -5 -508 -5 -507 -148 85 -148 86 3 460 4 461 27
80 c38 115 91 197 179 280 84 79 183 135 283 159 88 21 227 20 317 -3z m813
-266 c39 -8 108 -33 155 -56 68 -33 101 -59 165 -123 87 -88 130 -159 164
-269 24 -79 36 -207 24 -258 l-8 -36 -365 211 c-287 166 -372 211 -400 210
-28 0 -125 -51 -463 -247 -235 -136 -430 -247 -433 -247 -2 0 -3 77 -2 171 l3
170 200 116 c110 63 273 157 362 209 89 52 183 104 210 115 110 48 260 61 388
34z m-1845 -774 c0 -406 1 -430 19 -452 10 -14 211 -135 445 -269 234 -135
425 -247 426 -250 0 -3 -65 -43 -145 -89 l-145 -83 -123 70 c-416 238 -617
357 -664 394 -156 120 -255 347 -240 549 14 185 114 370 256 473 54 39 140 86
158 86 10 0 13 -91 13 -429z m1875 42 c187 -108 368 -216 402 -240 152 -107
248 -288 260 -488 11 -185 -53 -351 -186 -485 -73 -74 -187 -150 -224 -150
-16 0 -17 37 -17 431 l0 432 -32 29 c-31 28 -159 104 -660 390 -109 62 -198
115 -198 118 1 12 287 169 300 164 8 -3 168 -93 355 -201z m-578 -193 l132
-75 1 -220 0 -220 -178 -102 c-98 -56 -183 -103 -189 -105 -7 -2 -95 44 -197
102 l-186 105 3 219 2 220 185 107 185 107 55 -31 c30 -18 115 -66 187 -107z
m466 -270 l128 -73 -4 -461 c-4 -511 -3 -502 -73 -646 -28 -57 -57 -95 -123
-160 -96 -95 -186 -147 -301 -174 -85 -20 -227 -20 -309 0 -70 18 -175 66
-228 106 l-32 24 267 154 c449 259 477 276 490 305 9 19 12 159 12 527 l0 500
23 -14 c12 -9 80 -48 150 -88z m-340 -771 c-11 -11 -674 -394 -736 -426 -173
-87 -405 -82 -590 14 -91 46 -218 172 -264 258 -61 117 -94 285 -76 381 l8 41
370 -213 c203 -118 380 -214 392 -214 32 0 40 4 498 269 l400 232 3 -167 c1
-92 -1 -171 -5 -175z"/>
<path d="M4670 2756 c-305 -70 -521 -271 -627 -581 -72 -212 -72 -519 2 -734
125 -367 432 -591 810 -591 434 0 764 288 850 743 22 118 20 335 -5 459 -71
348 -300 606 -615 694 -79 22 -337 28 -415 10z m292 -287 c149 -31 276 -134
347 -281 52 -107 70 -186 78 -328 6 -132 -6 -229 -43 -342 -85 -257 -314 -407
-563 -370 -295 45 -477 328 -458 712 7 140 26 219 79 328 107 218 328 329 560
281z"/>
<path d="M10992 2723 c-5 -16 -162 -428 -347 -918 -186 -490 -340 -898 -343
-907 -4 -17 8 -18 160 -18 l164 0 48 133 c27 72 62 167 78 210 l30 77 405 -2
406 -3 77 -205 78 -205 167 -3 c156 -2 167 -1 163 15 -3 10 -157 418 -343 908
-186 490 -342 902 -347 918 l-10 27 -188 0 -188 0 -10 -27z m342 -743 l143
-375 -285 -3 c-157 -1 -287 0 -290 2 -2 3 46 142 108 308 161 432 173 464 177
453 2 -6 68 -179 147 -385z"/>
<path d="M12290 1805 l0 -935 165 0 165 0 0 935 0 935 -165 0 -165 0 0 -935z"/>
<path d="M6534 2255 c-81 -17 -156 -57 -215 -112 l-49 -46 0 72 0 71 -155 0
-155 0 0 -915 0 -915 155 0 155 0 0 301 0 300 55 -44 c98 -81 204 -117 340
-117 295 0 512 195 580 522 9 39 15 123 15 192 0 472 -323 779 -726 691z m188
-282 c62 -19 140 -90 173 -156 92 -189 63 -478 -60 -602 -63 -62 -135 -90
-235 -90 -73 0 -93 4 -142 28 -129 63 -197 200 -198 397 0 208 58 337 180 404
85 46 177 53 282 19z"/>
<path d="M7995 2263 c-214 -28 -410 -187 -494 -400 -60 -153 -68 -402 -18
-558 93 -284 327 -455 627 -455 226 0 419 100 529 275 65 103 67 101 -79 157
-69 26 -126 48 -127 48 -2 0 -14 -22 -27 -48 -63 -124 -206 -188 -360 -161
-153 26 -269 155 -293 325 l-6 44 477 0 476 0 0 108 c0 172 -39 311 -121 433
-116 173 -344 264 -584 232z m235 -284 c81 -36 139 -113 155 -206 l7 -43 -316
0 -316 0 18 48 c60 158 185 239 347 226 33 -3 80 -14 105 -25z"/>
<path d="M9521 2259 c-70 -14 -166 -64 -221 -115 l-50 -47 0 72 0 71 -155 0
-155 0 0 -680 0 -680 155 0 154 0 3 443 c3 426 4 444 24 488 77 166 298 222
419 105 73 -70 75 -82 75 -593 l0 -443 161 0 160 0 -4 503 c-4 545 -4 547 -63
663 -31 62 -111 142 -172 173 -88 45 -224 61 -331 40z"/>
</g>
</svg>
