<?xml version="1.0" standalone="no"?>
<!DOCTYPE svg PUBLIC "-//W3C//DTD SVG 20010904//EN"
 "http://www.w3.org/TR/2001/REC-SVG-20010904/DTD/svg10.dtd">
<svg version="1.0" xmlns="http://www.w3.org/2000/svg"
 width="3840.000000pt" height="2160.000000pt" viewBox="0 0 3840.000000 2160.000000"
 preserveAspectRatio="xMidYMid meet">

<g transform="translate(0.000000,2160.000000) scale(0.100000,-0.100000)"
fill="#000000" stroke="none">
<path d="M170 10800 l0 -9410 9618 0 9617 0 9410 9410 9410 9410 -19028 0
-19027 0 0 -9410z m5760 6055 c1006 -75 2066 -316 2990 -680 221 -87 402 -166
563 -246 112 -57 117 -60 106 -82 -11 -20 -274 -479 -669 -1167 -81 -140 -220
-383 -310 -540 -278 -485 -308 -535 -322 -533 -7 1 -86 36 -176 77 -646 303
-1181 481 -1715 571 -403 68 -1027 103 -1347 75 -521 -45 -917 -218 -1089
-475 -119 -178 -125 -366 -19 -542 128 -210 464 -450 936 -668 336 -154 654
-273 1252 -466 585 -189 961 -326 1314 -481 1178 -517 1868 -1168 2151 -2031
29 -89 63 -209 74 -267 12 -58 24 -116 27 -130 4 -18 130 306 443 1140 241
641 869 2314 1396 3718 l958 2552 1625 -2 1624 -3 118 -320 c64 -176 185 -504
268 -730 83 -225 610 -1661 1172 -3190 562 -1529 1175 -3199 1363 -3711 l342
-930 3 4444 2 4444 2108 -5 c2104 -5 2214 -7 2657 -42 1368 -110 2386 -457
3085 -1050 110 -94 317 -307 403 -415 504 -632 757 -1478 757 -2535 0 -441
-36 -758 -130 -1142 -224 -911 -763 -1652 -1560 -2145 -657 -406 -1520 -653
-2475 -707 -302 -18 -446 -20 -1085 -21 l-615 0 0 -1795 0 -1795 -2780 2
-2780 3 -270 847 c-149 466 -273 850 -277 853 -3 3 -92 -19 -198 -50 -428
-123 -871 -196 -1354 -226 -248 -15 -779 -7 -1006 15 -446 44 -870 126 -1255
245 -71 22 -131 38 -133 36 -2 -2 -130 -388 -284 -857 -154 -469 -283 -856
-287 -861 -4 -4 -772 -6 -1707 -5 l-1701 3 153 410 c85 226 167 448 184 494
l30 83 -61 -53 c-322 -282 -800 -568 -1244 -747 -703 -282 -1445 -405 -2345
-389 -528 10 -933 49 -1420 138 -897 163 -1874 513 -2628 938 l-92 53 576
1146 c317 631 579 1149 581 1152 2 2 19 -4 36 -14 760 -443 1383 -692 1990
-795 326 -56 462 -66 907 -66 426 0 517 7 748 55 185 39 371 115 498 205 77
55 209 195 253 268 73 124 111 250 118 397 7 131 -6 196 -60 303 -32 65 -60
101 -136 178 -112 112 -220 186 -416 285 -245 124 -499 218 -1075 400 -645
204 -958 314 -1331 467 -818 338 -1402 698 -1839 1137 -494 495 -747 1031
-832 1765 -19 167 -16 658 5 820 97 732 388 1337 892 1854 632 649 1553 1093
2635 1270 271 45 495 67 845 85 138 7 634 -4 835 -19z"/>
<path d="M22150 12715 l0 -1507 578 5 c604 5 683 10 937 57 703 131 1125 495
1245 1073 59 284 49 611 -26 877 -34 116 -121 291 -194 388 -206 273 -544 459
-996 548 -267 52 -330 56 -956 61 l-588 5 0 -1507z"/>
<path d="M14085 12998 c-3 -7 -268 -844 -590 -1859 -322 -1016 -587 -1853
-590 -1861 -4 -11 30 -26 142 -61 353 -112 666 -159 1053 -159 378 0 690 47
1053 159 93 29 116 40 112 52 -329 1062 -1155 3733 -1155 3736 0 11 -21 4 -25
-7z"/>
<path d="M24815 3815 c-237 -37 -438 -128 -617 -276 -397 -330 -540 -885 -353
-1371 256 -662 1033 -972 1684 -672 166 76 339 217 452 366 79 106 172 296
203 420 129 501 -41 1003 -441 1307 -85 65 -283 163 -383 191 -180 49 -377 62
-545 35z m433 -214 c278 -70 530 -283 647 -546 166 -376 104 -826 -157 -1136
-110 -130 -300 -247 -483 -295 -87 -23 -120 -27 -250 -27 -130 0 -163 4 -250
27 -301 79 -553 292 -666 564 -138 333 -108 703 81 989 153 233 383 386 657
438 108 20 311 13 421 -14z"/>
<path d="M24530 2611 l0 -701 105 0 105 0 0 305 0 306 122 -3 122 -3 190 -302
191 -303 118 0 c92 0 117 3 111 13 -4 6 -94 141 -201 300 -106 158 -193 289
-193 291 0 3 23 9 52 15 200 43 309 180 310 388 0 193 -79 308 -252 365 -61
21 -87 22 -422 26 l-358 3 0 -700z m614 509 c79 -13 136 -42 166 -87 21 -31
25 -48 25 -112 0 -83 -15 -122 -62 -165 -53 -49 -101 -58 -325 -64 l-208 -4 0
214 c0 118 3 218 7 221 10 11 330 8 397 -3z"/>
</g>
</svg>
