<?xml version="1.0" standalone="no"?>
<!DOCTYPE svg PUBLIC "-//W3C//DTD SVG 20010904//EN"
 "http://www.w3.org/TR/2001/REC-SVG-20010904/DTD/svg10.dtd">
<svg version="1.0" xmlns="http://www.w3.org/2000/svg"
 width="1606.000000pt" height="519.000000pt" viewBox="0 0 1606.000000 519.000000"
 preserveAspectRatio="xMidYMid meet">

<g transform="translate(0.000000,519.000000) scale(0.100000,-0.100000)"
fill="#000000" stroke="none">
<path d="M1990 4585 c0 -327 -3 -595 -8 -595 -4 0 -229 222 -501 494 l-493
494 -60 -34 c-55 -31 -171 -109 -227 -152 l-23 -19 471 -468 471 -468 0 -1036
0 -1036 365 -365 365 -365 0 260 0 260 -185 185 -185 185 7 848 6 847 441 0
441 0 -185 185 -185 185 -200 0 -200 1 73 23 c177 58 324 206 383 388 34 105
33 262 -4 366 -36 104 -81 174 -161 249 -100 95 -256 163 -371 163 l-35 0 0
-595z"/>
<path d="M378 4463 c-47 -62 -145 -219 -154 -245 -5 -17 52 -79 330 -357 l336
-336 0 -255 0 -255 -409 409 c-224 224 -411 404 -414 399 -17 -27 -50 -251
-51 -344 l-1 -107 620 -631 620 -632 3 783 2 783 -417 417 c-230 230 -420 418
-423 418 -3 0 -22 -21 -42 -47z"/>
<path d="M5572 3968 c-11 -15 -258 -476 -268 -501 -6 -16 27 -17 485 -17 l492
0 -34 -62 c-19 -35 -92 -173 -162 -308 -127 -244 -301 -576 -640 -1225 -97
-187 -199 -381 -226 -431 -27 -50 -49 -94 -49 -98 0 -3 384 -5 852 -4 l853 3
136 255 c75 140 134 258 132 263 -2 4 -222 7 -489 7 -266 0 -484 2 -484 4 0 2
66 129 146 282 80 154 226 432 324 619 98 187 280 534 404 772 124 238 226
437 226 442 0 17 -1684 15 -1698 -1z"/>
<path d="M7500 2650 l0 -1330 758 2 757 3 0 260 0 260 -437 3 -438 2 0 270 0
270 438 2 437 3 3 258 2 257 -440 0 -440 0 0 270 0 270 438 2 437 3 0 260 0
260 -757 3 -758 2 0 -1330z"/>
<path d="M9335 3969 c-3 -8 -4 -606 -3 -1329 l3 -1315 550 -3 c741 -4 872 8
1038 95 140 74 250 221 299 400 27 103 30 298 5 393 -55 208 -210 366 -405
412 -29 7 -52 15 -52 19 0 3 24 13 54 22 161 51 310 218 362 407 24 86 24 277
0 375 -9 39 -37 111 -61 162 -98 200 -257 304 -540 349 -142 23 -1242 34
-1250 13z m977 -493 c162 -35 228 -109 236 -267 12 -239 -106 -328 -435 -329
l-133 0 0 305 0 305 133 0 c75 0 161 -6 199 -14z m80 -1085 c73 -23 130 -71
166 -141 28 -56 33 -77 35 -145 2 -99 -15 -162 -60 -215 -68 -79 -138 -99
-375 -107 l-178 -6 0 318 0 318 188 -6 c103 -3 204 -10 224 -16z"/>
<path d="M11500 2650 l0 -1330 320 0 320 0 2 512 3 513 284 -505 c157 -278
290 -508 295 -512 6 -4 179 -8 384 -8 291 0 372 3 372 13 0 6 -128 226 -285
487 l-284 474 79 41 c160 84 265 187 336 330 59 120 84 222 91 372 21 435
-167 746 -521 862 -202 67 -374 81 -963 81 l-433 0 0 -1330z m940 790 c141
-18 243 -89 299 -209 22 -49 26 -69 26 -156 0 -87 -4 -107 -26 -156 -70 -149
-203 -208 -466 -209 l-133 0 0 363 c0 200 3 367 7 370 10 10 207 8 293 -3z"/>
<path d="M14365 3968 c-5 -14 -718 -2168 -815 -2461 -41 -124 -55 -179 -47
-183 7 -2 160 -3 341 -2 l328 3 81 258 81 257 432 0 433 0 15 -52 c9 -29 44
-145 80 -258 l64 -205 346 -3 c190 -1 346 1 346 5 0 7 -76 242 -545 1678 -169
517 -312 948 -317 958 -8 16 -38 17 -414 17 -315 0 -406 -3 -409 -12z m535
-1178 c71 -228 128 -415 126 -417 -2 -2 -120 -2 -263 -1 l-260 3 131 417 c72
229 132 416 133 414 2 -1 61 -189 133 -416z"/>
<path d="M2352 2733 l3 -878 180 0 180 0 3 695 2 695 180 -180 180 -180 0
-517 0 -518 184 0 183 0 7 -65 c27 -261 234 -478 500 -523 80 -14 104 -14 181
-3 236 36 436 215 495 446 35 138 50 112 -212 373 l-233 232 -187 0 -188 0 0
-230 0 -230 -180 0 -180 0 0 332 0 333 -182 182 -183 183 258 0 c141 0 257 3
257 7 0 4 -80 87 -177 185 l-178 178 -265 0 -264 0 -177 180 c-96 99 -179 180
-182 180 -4 0 -6 -395 -5 -877z"/>
<path d="M10 2597 l0 -252 1170 -1170 1170 -1170 0 260 0 260 -1163 1163
c-639 639 -1165 1162 -1170 1162 -4 0 -7 -114 -7 -253z"/>
</g>
</svg>
