<?xml version="1.0" standalone="no"?>
<!DOCTYPE svg PUBLIC "-//W3C//DTD SVG 20010904//EN"
 "http://www.w3.org/TR/2001/REC-SVG-20010904/DTD/svg10.dtd">
<svg version="1.0" xmlns="http://www.w3.org/2000/svg"
 width="1024.000000pt" height="1024.000000pt" viewBox="0 0 1024.000000 1024.000000"
 preserveAspectRatio="xMidYMid meet">

<g transform="translate(0.000000,1024.000000) scale(0.100000,-0.100000)"
fill="#ffffff" stroke="none">
<path d="M5015 9237 c-114 -38 -191 -102 -237 -195 -31 -63 -33 -72 -33 -177
0 -105 2 -114 33 -177 35 -72 87 -125 160 -162 l43 -22 2 -276 2 -277 -740 -3
-740 -3 -66 -27 c-131 -52 -219 -127 -277 -235 -62 -117 -60 -92 -61 -955 l-1
-788 1297 -1 c714 0 1316 -2 1338 -4 22 -2 69 -7 105 -10 95 -9 275 -50 371
-83 251 -87 452 -201 643 -365 l59 -51 67 71 c75 78 122 165 139 253 6 35 10
366 10 895 1 926 1 921 -61 1036 -57 109 -162 196 -288 241 l-65 23 -727 3
-728 3 0 282 0 282 55 29 c68 35 129 100 163 174 23 49 27 70 27 152 -1 83 -4
103 -29 157 -35 77 -113 154 -193 190 -70 31 -203 41 -268 20z m-378 -2037
c18 -10 41 -37 53 -59 19 -38 20 -58 20 -313 0 -305 -3 -320 -71 -366 -33 -23
-34 -23 -340 -20 l-308 3 -29 28 c-50 48 -54 76 -50 372 3 299 5 305 71 353
31 22 37 22 327 22 275 0 297 -1 327 -20z m1628 -8 c62 -49 64 -60 65 -360 0
-300 -3 -317 -59 -365 l-33 -27 -308 0 -309 0 -35 35 c-19 19 -40 52 -45 72
-15 52 -14 501 0 558 8 31 24 56 51 80 l39 36 302 -3 c300 -3 303 -3 332 -26z"/>
<path d="M7360 6575 l0 -408 42 7 c97 16 176 69 209 141 16 35 19 67 19 250 0
116 -4 226 -10 245 -22 80 -118 156 -209 167 l-51 6 0 -408z"/>
<path d="M2766 6935 c-69 -28 -108 -63 -136 -121 -18 -37 -21 -62 -21 -241 -1
-225 5 -250 69 -316 37 -38 122 -77 167 -77 l25 0 0 390 0 390 -22 0 c-13 0
-49 -11 -82 -25z"/>
<path d="M3100 5183 l0 -462 1263 -3 1262 -3 79 -23 c264 -74 380 -211 402
-473 13 -153 -46 -302 -151 -382 -66 -51 -182 -93 -307 -111 -86 -13 -205 -16
-640 -16 l-535 0 -76 -157 c-41 -87 -154 -321 -250 -520 l-175 -362 170 -193
c94 -106 227 -258 297 -337 69 -79 135 -154 146 -166 11 -13 137 -156 280
-319 l259 -296 101 0 c55 0 497 -1 982 -2 l881 -3 -46 55 c-25 30 -78 91 -117
135 -39 44 -188 215 -330 380 -143 165 -316 365 -385 445 -236 272 -292 339
-291 346 0 4 37 19 83 34 400 132 737 395 938 733 159 267 220 557 188 887
-37 372 -266 743 -598 969 -211 143 -435 232 -711 282 -45 9 -450 14 -1392 18
l-1327 6 0 -462z"/>
</g>
</svg>
