<?xml version="1.0" standalone="no"?>
<!DOCTYPE svg PUBLIC "-//W3C//DTD SVG 20010904//EN"
 "http://www.w3.org/TR/2001/REC-SVG-20010904/DTD/svg10.dtd">
<svg version="1.0" xmlns="http://www.w3.org/2000/svg"
 width="3863.000000pt" height="847.000000pt" viewBox="0 0 3863.000000 847.000000"
 preserveAspectRatio="xMidYMid meet">

<g transform="translate(0.000000,847.000000) scale(0.100000,-0.100000)"
fill="#000000" stroke="none">
<path d="M20560 7264 c-96 -7 -211 -20 -255 -29 -44 -8 -94 -15 -112 -15 -17
0 -44 -5 -60 -11 -15 -6 -46 -14 -68 -19 -106 -21 -296 -76 -380 -110 -11 -4
-48 -18 -83 -31 -244 -86 -686 -359 -903 -556 -253 -231 -483 -503 -616 -729
-68 -115 -212 -401 -236 -469 -8 -22 -32 -89 -55 -150 -22 -60 -47 -139 -57
-175 -9 -36 -22 -85 -30 -110 -7 -25 -20 -88 -29 -140 -8 -52 -21 -126 -27
-165 -29 -178 -28 -665 1 -845 27 -165 42 -249 55 -300 8 -30 22 -89 32 -130
35 -153 192 -529 286 -685 198 -331 304 -471 542 -713 279 -285 658 -533 1035
-677 137 -53 205 -76 270 -95 41 -11 95 -27 120 -34 44 -13 116 -29 270 -60
41 -8 156 -22 255 -31 467 -42 966 35 1450 222 136 53 408 199 557 300 238
159 561 453 703 638 152 199 317 461 391 623 25 53 49 105 54 114 12 21 110
281 110 291 0 4 -331 7 -735 7 l-734 0 -62 -82 c-35 -46 -93 -117 -129 -159
-37 -42 -73 -85 -81 -95 -46 -63 -314 -252 -460 -324 -111 -55 -308 -125 -399
-141 -30 -5 -84 -17 -120 -26 -84 -20 -464 -23 -555 -4 -33 7 -89 19 -125 26
-193 39 -321 92 -565 230 -94 53 -241 173 -320 260 -44 49 -87 96 -95 104 -52
56 -142 174 -164 216 -15 28 -38 70 -51 95 -79 147 -139 313 -169 460 -35 180
-41 233 -41 390 0 151 7 224 36 360 6 25 16 75 24 112 33 158 177 452 298 608
72 93 258 276 352 347 186 139 449 266 640 307 44 9 96 21 115 27 19 5 94 14
167 20 138 12 397 1 518 -21 102 -19 369 -111 470 -161 176 -88 465 -329 594
-496 l33 -43 748 0 c459 0 751 4 755 9 7 13 -54 172 -112 289 -249 505 -620
935 -1073 1244 -41 28 -94 65 -118 81 -132 90 -499 255 -692 312 -25 7 -76 23
-115 35 -76 23 -97 28 -260 60 -128 24 -237 37 -425 50 -159 11 -146 11 -370
-6z"/>
<path d="M27415 7264 c-99 -7 -218 -20 -265 -28 -47 -9 -101 -17 -120 -19 -78
-9 -486 -129 -607 -178 -101 -42 -344 -169 -428 -223 -100 -64 -347 -243 -389
-281 -12 -11 -60 -54 -106 -95 -76 -68 -177 -169 -259 -260 -68 -75 -230 -301
-299 -417 -86 -145 -205 -389 -257 -528 -59 -156 -66 -175 -85 -250 -10 -38
-27 -105 -39 -148 -11 -43 -23 -101 -27 -130 -3 -29 -12 -83 -19 -122 -27
-146 -39 -442 -26 -643 7 -103 17 -214 22 -247 6 -33 16 -98 24 -145 14 -88
72 -325 98 -395 133 -370 275 -638 485 -920 126 -169 245 -303 343 -389 19
-17 68 -60 109 -96 124 -110 311 -245 516 -372 39 -24 292 -141 369 -171 128
-49 276 -100 329 -113 134 -34 183 -46 226 -55 264 -51 554 -69 822 -52 106 7
231 19 278 27 47 9 101 17 120 19 19 3 69 14 110 25 41 11 118 31 170 45 52
14 109 33 125 41 17 9 35 16 42 16 7 0 27 6 45 14 18 8 88 38 156 66 259 108
330 148 582 325 248 174 445 369 688 678 289 368 506 868 578 1327 82 527 68
877 -56 1390 -24 99 -108 335 -155 435 -20 44 -44 96 -53 115 -67 147 -254
442 -382 602 -93 116 -348 370 -455 453 -125 97 -329 242 -382 270 -26 14 -75
40 -108 59 -74 43 -160 85 -245 121 -36 15 -69 30 -75 35 -5 4 -64 24 -130 45
-66 20 -131 41 -145 45 -40 14 -272 72 -305 77 -16 2 -70 10 -120 18 -77 12
-492 48 -513 44 -4 -1 -88 -8 -187 -15z m456 -1365 c30 -6 86 -17 124 -24 169
-32 231 -53 394 -130 228 -110 369 -211 561 -405 144 -145 322 -453 393 -683
72 -229 71 -225 71 -532 0 -257 -2 -287 -23 -368 -58 -232 -162 -467 -289
-657 -186 -277 -509 -526 -846 -652 -116 -43 -182 -59 -415 -99 -79 -14 -427
-7 -491 9 -25 7 -90 21 -145 33 -297 62 -663 274 -871 505 -146 161 -222 271
-310 445 -84 167 -112 255 -161 504 -25 128 -24 444 1 570 47 233 78 330 157
486 55 111 142 258 171 289 13 14 41 48 63 75 68 85 216 228 305 294 99 73
146 101 295 175 171 84 229 104 425 142 41 8 93 19 115 23 60 13 414 13 476 0z"/>
<path d="M1283 7159 c-10 -10 -13 -630 -13 -3030 l0 -3018 22 -15 c20 -14 98
-16 653 -16 555 0 633 2 653 16 l22 15 0 983 c0 750 3 985 12 994 9 9 202 12
809 12 819 0 819 0 1109 41 126 18 312 63 388 95 18 8 39 14 47 14 29 0 366
171 453 230 160 108 343 276 447 410 106 137 274 425 275 471 0 8 4 19 8 25
12 13 48 110 68 179 9 33 23 80 30 104 8 25 14 58 14 74 0 16 6 55 14 86 28
115 26 467 -4 646 -44 260 -151 541 -281 738 -22 32 -39 61 -39 64 0 17 -169
213 -259 302 -206 199 -340 287 -661 434 -111 51 -276 100 -390 117 -41 6 -97
16 -125 21 -79 17 -3236 24 -3252 8z m3021 -1174 c169 -36 256 -84 392 -220
101 -101 115 -119 161 -215 86 -178 107 -260 108 -415 0 -133 -15 -201 -81
-355 -90 -212 -269 -377 -515 -477 -41 -16 -102 -18 -884 -21 -782 -2 -841 -1
-852 15 -17 22 -19 1653 -3 1684 10 19 30 19 808 19 659 0 809 -3 866 -15z"/>
<path d="M12130 7155 c-10 -12 17 -57 147 -252 87 -131 163 -246 168 -255 6
-9 53 -81 106 -160 53 -79 218 -327 367 -553 149 -225 299 -450 332 -500 33
-49 89 -133 124 -185 34 -52 90 -135 123 -185 33 -49 146 -220 251 -380 106
-159 219 -330 252 -380 33 -49 94 -141 135 -203 l75 -113 2 -1440 c3 -1413 3
-1441 22 -1455 17 -12 121 -14 647 -14 384 0 638 4 653 10 l26 10 0 1436 0
1436 37 62 c33 55 381 580 483 731 23 33 219 328 435 655 217 327 422 636 455
685 101 150 264 395 275 412 6 9 101 153 213 321 159 239 200 308 191 318 -9
12 -124 14 -650 14 -356 0 -648 -4 -662 -9 -15 -6 -81 -96 -193 -263 -93 -139
-173 -261 -179 -271 -5 -9 -35 -54 -66 -100 -31 -45 -96 -143 -145 -217 -50
-74 -99 -149 -111 -165 -33 -47 -418 -629 -421 -637 -3 -6 -111 -169 -172
-258 -6 -8 -35 -53 -65 -100 -67 -101 -83 -120 -105 -120 -10 0 -62 70 -140
188 -68 103 -198 300 -289 437 -204 310 -258 391 -281 424 -28 41 -254 384
-265 404 -5 9 -35 54 -66 100 -31 45 -114 170 -184 277 -70 107 -143 218 -162
246 -18 29 -43 54 -56 58 -12 3 -308 6 -658 6 -545 0 -638 -2 -649 -15z"/>
<path d="M30810 7158 c0 -14 5 -24 70 -143 24 -44 50 -91 57 -105 8 -14 24
-43 37 -65 12 -22 39 -70 59 -107 40 -73 92 -164 107 -188 5 -8 21 -37 35 -65
14 -27 36 -68 49 -90 12 -22 40 -71 61 -110 21 -38 49 -88 61 -110 12 -22 35
-62 50 -90 36 -65 50 -91 78 -140 12 -22 40 -71 61 -110 21 -38 49 -88 61
-110 26 -45 33 -58 93 -170 24 -44 47 -84 51 -90 4 -5 25 -41 45 -80 90 -166
129 -238 159 -290 12 -22 40 -71 61 -110 21 -38 49 -88 61 -110 12 -22 35 -62
50 -90 36 -65 50 -91 78 -140 32 -56 94 -170 129 -235 16 -30 33 -59 37 -65 4
-5 27 -46 51 -90 60 -112 67 -125 93 -170 12 -22 40 -71 61 -110 21 -38 49
-88 61 -110 13 -22 31 -56 42 -75 10 -19 42 -75 69 -125 28 -49 67 -121 88
-160 21 -38 46 -83 56 -100 10 -16 30 -52 44 -80 14 -27 36 -68 49 -90 40 -70
122 -218 161 -290 21 -38 41 -74 45 -80 4 -5 25 -41 45 -80 52 -95 94 -172
121 -220 12 -22 32 -58 44 -80 12 -22 35 -62 50 -90 108 -196 131 -238 165
-300 21 -38 41 -74 45 -80 4 -5 24 -41 45 -80 55 -101 75 -139 132 -240 27
-49 67 -121 88 -160 21 -38 41 -74 45 -80 4 -5 25 -41 45 -80 21 -38 49 -88
61 -110 13 -22 35 -64 51 -93 15 -29 35 -60 44 -68 15 -13 18 -11 36 23 29 57
95 177 103 188 4 6 27 46 51 90 58 109 67 124 93 170 12 22 38 69 58 105 19
36 49 89 67 118 17 29 31 55 31 57 0 2 14 27 30 55 30 50 74 131 133 240 16
30 33 60 37 65 4 6 23 39 42 75 97 180 111 206 118 215 4 6 25 42 45 80 21 39
49 88 61 110 12 22 35 63 50 90 39 70 52 94 78 140 12 22 40 72 61 110 20 39
41 75 45 80 4 6 27 46 51 90 58 109 67 124 93 170 12 22 40 72 61 110 21 39
49 88 61 110 12 22 35 63 50 90 36 65 50 91 78 140 12 22 40 72 61 110 21 39
49 88 61 110 26 45 33 58 93 170 24 44 47 85 51 90 4 6 25 42 45 80 21 39 49
88 61 110 26 45 33 58 93 170 24 44 47 85 51 90 7 9 41 72 113 205 16 30 33
60 37 65 4 6 27 46 51 90 60 112 67 125 93 170 12 22 40 72 61 110 21 39 49
88 61 110 13 22 31 56 42 75 20 36 107 193 148 265 12 22 32 58 44 80 12 22
35 63 50 90 15 28 38 68 50 90 12 22 31 58 44 80 19 35 86 156 123 225 8 14
24 43 37 65 12 22 40 72 61 110 22 39 49 88 61 110 13 22 34 60 47 85 14 25
34 61 45 80 12 19 32 58 47 85 14 28 29 57 34 65 46 75 81 140 81 149 0 8
-205 11 -755 11 l-755 0 -23 -37 c-13 -21 -43 -74 -67 -118 -68 -124 -70 -127
-94 -170 -12 -22 -39 -70 -59 -107 -20 -37 -50 -90 -67 -118 -16 -28 -30 -53
-30 -55 0 -2 -14 -27 -30 -55 -17 -28 -45 -79 -64 -113 -19 -34 -53 -96 -76
-137 -23 -41 -60 -109 -82 -150 -23 -41 -44 -79 -48 -85 -4 -5 -21 -35 -37
-65 -33 -60 -123 -221 -159 -285 -26 -46 -34 -59 -93 -170 -24 -44 -47 -84
-51 -90 -4 -5 -22 -37 -40 -70 -84 -155 -102 -187 -130 -235 -16 -28 -30 -53
-30 -55 0 -2 -14 -27 -30 -55 -17 -28 -47 -81 -67 -118 -20 -37 -47 -85 -59
-107 -12 -22 -35 -62 -50 -90 -39 -70 -52 -94 -78 -140 -12 -22 -40 -71 -61
-110 -20 -38 -41 -74 -45 -80 -4 -5 -24 -41 -45 -80 -21 -38 -61 -110 -88
-160 -28 -49 -59 -105 -68 -123 -20 -38 -39 -62 -48 -62 -3 0 -17 21 -31 48
-13 26 -37 69 -52 95 -29 49 -78 138 -131 237 -16 30 -33 60 -37 65 -7 9 -21
35 -118 215 -19 36 -38 70 -42 75 -4 6 -25 42 -45 80 -21 39 -49 88 -61 110
-26 45 -33 58 -93 170 -24 44 -47 85 -51 90 -4 6 -24 42 -45 80 -21 39 -54 97
-72 130 -19 33 -40 74 -49 90 -8 17 -25 48 -38 70 -39 68 -121 217 -161 290
-21 39 -41 75 -45 80 -4 6 -25 42 -45 80 -55 100 -95 174 -121 220 -26 46 -34
60 -93 170 -24 44 -47 85 -51 90 -7 9 -41 72 -113 205 -16 30 -33 60 -37 65
-7 9 -21 35 -118 215 -19 36 -38 70 -42 75 -4 6 -27 46 -50 90 -24 44 -51 85
-59 92 -24 18 -1601 19 -1601 1z"/>
<path d="M9351 7059 c-23 -39 -41 -72 -41 -74 0 -2 -20 -38 -45 -79 -25 -42
-45 -79 -45 -81 0 -2 -22 -42 -48 -87 -27 -46 -75 -130 -107 -188 -32 -58 -73
-130 -90 -160 -17 -30 -34 -62 -38 -70 -4 -8 -18 -33 -30 -55 -13 -22 -44 -76
-69 -120 -24 -44 -75 -134 -113 -200 -63 -112 -171 -307 -260 -470 -21 -38
-49 -87 -62 -107 -13 -21 -23 -40 -23 -44 0 -4 -15 -32 -34 -63 -33 -54 -53
-91 -131 -236 -21 -38 -41 -74 -45 -80 -5 -5 -21 -35 -38 -65 -16 -30 -53 -98
-82 -150 -29 -52 -65 -117 -80 -145 -15 -27 -51 -93 -81 -145 -29 -52 -66
-120 -82 -150 -16 -30 -33 -59 -37 -65 -4 -5 -24 -41 -45 -80 -35 -64 -104
-188 -161 -290 -13 -22 -39 -70 -59 -108 -19 -37 -48 -89 -63 -115 -16 -26
-31 -54 -35 -62 -4 -8 -18 -33 -30 -55 -13 -22 -41 -71 -62 -110 -21 -38 -49
-88 -62 -110 -12 -22 -26 -47 -30 -55 -4 -8 -19 -37 -35 -63 -28 -48 -74 -132
-131 -237 -16 -30 -33 -59 -37 -65 -4 -5 -24 -41 -45 -80 -36 -66 -112 -203
-161 -290 -26 -46 -34 -59 -93 -170 -24 -44 -47 -84 -51 -90 -4 -5 -25 -41
-45 -80 -21 -38 -51 -92 -65 -120 -15 -27 -41 -72 -57 -100 -16 -27 -32 -57
-36 -65 -4 -8 -23 -42 -42 -75 -19 -33 -40 -70 -45 -82 -5 -12 -20 -39 -33
-60 -13 -21 -43 -74 -67 -118 -24 -44 -52 -93 -61 -110 -10 -16 -25 -43 -33
-60 -8 -16 -36 -66 -61 -110 -25 -44 -52 -94 -60 -112 -8 -17 -19 -34 -25 -38
-5 -3 -10 -15 -10 -26 0 -19 15 -19 809 -19 l810 0 7 23 c4 12 17 38 29 57 12
19 39 67 60 105 34 62 59 108 165 300 15 28 38 68 50 90 12 22 32 58 44 80 22
40 49 88 119 217 20 37 50 90 67 118 16 28 30 53 30 55 0 2 14 27 30 55 17 28
47 81 67 118 70 129 97 177 119 217 12 22 32 58 44 80 50 90 169 304 206 370
13 22 30 54 38 70 9 17 30 57 49 90 94 167 137 246 172 310 21 39 41 75 45 80
7 9 42 72 113 205 16 30 33 60 37 65 4 6 23 40 44 78 20 37 52 97 72 135 21
37 40 72 44 77 7 10 64 112 101 183 35 66 53 77 69 40 6 -13 21 -41 33 -63 13
-22 37 -65 54 -95 17 -30 53 -95 80 -145 28 -49 67 -121 88 -160 21 -38 41
-74 45 -80 7 -9 42 -72 113 -205 16 -30 33 -59 37 -65 4 -5 23 -40 44 -77 20
-38 52 -98 72 -135 21 -38 40 -72 44 -78 4 -5 24 -41 45 -80 72 -134 108 -200
115 -210 4 -5 21 -35 37 -65 16 -30 52 -95 80 -145 27 -49 67 -121 88 -160 21
-38 41 -74 45 -80 7 -9 42 -72 113 -205 16 -30 33 -59 37 -65 4 -5 23 -40 44
-77 87 -162 111 -205 133 -241 13 -21 28 -48 33 -60 5 -12 25 -49 44 -82 19
-33 45 -78 57 -100 11 -22 34 -62 49 -90 15 -27 51 -93 80 -145 90 -162 101
-184 128 -230 50 -89 -40 -80 814 -80 l759 0 -36 68 c-20 37 -46 85 -59 107
-12 22 -40 72 -61 110 -21 39 -49 88 -61 110 -12 22 -35 63 -50 90 -36 65 -50
91 -78 140 -12 22 -40 72 -61 110 -21 39 -49 88 -61 110 -12 22 -35 63 -50 90
-15 28 -34 61 -41 75 -8 14 -30 52 -49 85 -19 33 -39 70 -44 82 -5 12 -20 39
-33 60 -13 21 -43 74 -67 118 -67 123 -70 127 -94 170 -40 72 -122 218 -161
290 -22 39 -63 112 -92 164 -29 51 -53 96 -53 98 0 2 -22 42 -50 89 -27 47
-50 87 -50 90 0 2 -11 21 -23 42 -13 20 -40 66 -59 102 -32 60 -108 196 -164
295 -13 22 -30 54 -38 70 -9 17 -26 48 -38 70 -13 22 -41 72 -62 110 -22 39
-48 86 -59 105 -76 136 -225 404 -249 450 -17 30 -34 60 -38 65 -4 6 -27 46
-51 90 -59 111 -67 124 -93 170 -26 45 -114 204 -158 284 -17 29 -43 76 -59
103 -16 27 -29 51 -29 53 0 2 -22 42 -50 90 -27 48 -50 89 -50 91 0 2 -10 21
-23 42 -13 20 -41 69 -62 107 -36 66 -160 292 -228 415 -16 30 -40 73 -52 95
-12 22 -40 72 -60 110 -21 39 -60 111 -88 160 -27 50 -63 115 -80 145 -16 30
-42 78 -57 105 -15 28 -45 82 -66 120 -21 39 -53 97 -71 130 -18 33 -47 88
-65 123 -20 40 -38 62 -49 62 -11 0 -32 -26 -58 -71z"/>
</g>
</svg>
