<?xml version="1.0" standalone="no"?>
<!DOCTYPE svg PUBLIC "-//W3C//DTD SVG 20010904//EN"
 "http://www.w3.org/TR/2001/REC-SVG-20010904/DTD/svg10.dtd">
<svg version="1.0" xmlns="http://www.w3.org/2000/svg"
 width="822.000000pt" height="227.000000pt" viewBox="0 0 822.000000 227.000000"
 preserveAspectRatio="xMidYMid meet">

<g transform="translate(0.000000,227.000000) scale(0.100000,-0.100000)"
fill="#000000" stroke="none">
<path d="M230 1895 l0 -205 635 0 c690 0 679 1 723 -55 15 -18 22 -42 22 -69
0 -45 -26 -85 -155 -235 l-70 -81 -175 -1 c-96 -1 -232 -4 -301 -8 l-127 -6
383 -540 383 -540 246 -3 c135 -1 246 0 246 2 0 3 -108 157 -241 342 -212 296
-238 338 -226 353 7 9 76 90 154 181 77 91 157 187 177 214 137 180 153 371
48 570 -65 125 -156 200 -312 260 -54 20 -72 21 -732 24 l-678 3 0 -206z"/>
<path d="M2290 1125 l0 -975 200 0 200 0 2 460 3 461 80 -98 c43 -54 211 -261
373 -460 l293 -363 255 0 c139 0 254 3 254 6 0 3 -48 65 -107 137 -342 419
-738 904 -749 917 -11 13 5 35 104 146 64 72 231 258 371 415 140 156 263 294
274 307 l20 22 -265 0 -265 0 -183 -207 c-101 -115 -245 -277 -320 -360 l-135
-152 -3 359 -2 360 -200 0 -200 0 0 -975z"/>
<path d="M4160 1125 l0 -975 195 0 195 0 0 975 0 975 -195 0 -195 0 0 -975z"/>
<path d="M5394 2090 c-239 -32 -439 -196 -533 -438 l-26 -67 -3 -418 c-3 -474
0 -507 75 -657 51 -101 170 -221 270 -273 141 -73 185 -80 571 -85 l342 -4 0
190 c0 105 3 197 6 206 6 14 -25 16 -303 16 -344 0 -378 5 -455 63 -23 18 -56
55 -73 82 l-30 48 -3 356 c-2 247 0 368 8 395 14 46 89 130 145 159 38 21 56
22 374 27 l334 5 -1 200 -2 200 -317 1 c-175 1 -346 -2 -379 -6z"/>
<path d="M6284 2078 c8 -13 112 -189 232 -393 119 -203 257 -437 306 -520 l88
-150 0 -433 0 -432 203 2 202 3 3 428 2 428 219 377 c184 319 292 506 392 680
l18 32 -223 0 -224 0 -186 -317 c-102 -175 -189 -324 -193 -331 -5 -8 -74 99
-201 318 l-194 330 -229 0 -229 0 14 -22z"/>
</g>
</svg>
