<?xml version="1.0" standalone="no"?>
<!DOCTYPE svg PUBLIC "-//W3C//DTD SVG 20010904//EN"
 "http://www.w3.org/TR/2001/REC-SVG-20010904/DTD/svg10.dtd">
<svg version="1.0" xmlns="http://www.w3.org/2000/svg"
 width="6400.000000pt" height="1704.000000pt" viewBox="0 0 6400.000000 1704.000000"
 preserveAspectRatio="xMidYMid meet">

<g transform="translate(0.000000,1704.000000) scale(0.100000,-0.100000)"
fill="#000000" stroke="none">
<path d="M30328 15880 l-23 -6 -6 -254 c-8 -334 -11 -13874 -3 -13894 6 -15
195 -16 2044 -16 l2038 0 6 23 c9 33 7 14120 -2 14134 -6 10 -440 13 -2019 15
-1107 2 -2022 1 -2035 -2z"/>
<path d="M40478 15878 c-8 -7 -20 -21 -25 -31 -5 -10 -32 -34 -60 -55 -28 -20
-102 -84 -164 -141 -63 -57 -136 -125 -164 -150 -27 -24 -82 -74 -120 -110
-78 -72 -102 -94 -250 -226 -55 -49 -125 -113 -155 -141 -30 -28 -77 -71 -104
-95 -27 -24 -61 -55 -75 -69 -40 -38 -210 -191 -261 -235 -25 -22 -77 -69
-115 -105 -102 -95 -427 -390 -549 -499 -39 -35 -98 -89 -131 -120 -33 -31
-105 -96 -160 -145 -55 -49 -147 -133 -205 -186 -58 -53 -157 -143 -220 -200
-63 -57 -149 -135 -190 -174 -41 -39 -93 -87 -115 -106 -22 -19 -87 -78 -145
-130 -58 -52 -143 -129 -189 -170 -46 -41 -98 -88 -116 -105 -17 -16 -52 -48
-76 -69 -59 -53 -260 -237 -329 -302 -30 -28 -82 -76 -116 -105 l-61 -53 -6
-576 c-4 -316 -7 -1837 -7 -3379 l0 -2804 48 -46 c26 -25 110 -103 187 -172
77 -69 187 -168 245 -220 58 -52 120 -108 139 -124 19 -17 62 -55 95 -86 34
-30 106 -95 161 -144 55 -49 145 -130 200 -180 104 -94 523 -470 604 -540 25
-22 75 -68 111 -101 36 -34 88 -81 115 -104 28 -24 91 -80 140 -125 50 -45
196 -176 325 -291 129 -115 262 -234 295 -265 33 -31 125 -114 205 -184 158
-140 161 -143 330 -297 63 -57 165 -148 225 -202 376 -335 633 -566 649 -585
11 -12 24 -31 30 -44 l12 -22 3709 0 3710 0 3 1841 c2 1462 -1 1843 -10 1856
-12 15 -317 17 -3711 20 -2256 3 -3701 8 -3706 14 -5 5 -12 1494 -16 3380 l-7
3371 23 6 c13 4 1685 7 3715 7 2856 0 3693 3 3702 12 16 16 18 3669 2 3699
-11 19 -63 19 -3708 19 -2944 0 -3701 -3 -3714 -12z"/>
<path d="M48640 15880 c-16 -10 -16 -10 80 -190 28 -52 79 -147 112 -210 34
-63 71 -133 83 -155 12 -22 48 -89 80 -150 32 -60 74 -141 95 -180 20 -38 61
-115 90 -170 29 -55 65 -122 80 -150 15 -27 51 -95 80 -150 57 -107 116 -219
160 -300 15 -27 55 -104 90 -170 35 -66 73 -138 85 -160 103 -189 385 -723
385 -730 0 -4 8 -19 19 -33 10 -15 46 -81 81 -147 139 -266 164 -314 212 -405
28 -52 54 -99 58 -105 4 -5 42 -77 85 -160 43 -82 90 -172 105 -200 15 -27 51
-95 80 -150 29 -55 65 -122 80 -150 15 -27 49 -93 77 -145 160 -303 309 -583
353 -665 21 -38 51 -95 68 -126 17 -31 72 -134 122 -230 51 -96 111 -208 133
-249 22 -41 77 -145 122 -230 45 -85 101 -191 125 -235 23 -44 63 -118 88
-165 24 -47 62 -116 82 -155 21 -38 66 -124 100 -190 34 -66 66 -124 70 -130
4 -5 44 -80 88 -166 45 -86 89 -172 100 -190 23 -42 98 -183 165 -309 27 -52
53 -99 57 -105 4 -5 42 -77 85 -160 78 -150 134 -257 185 -350 36 -66 95 -178
160 -300 125 -236 160 -302 255 -480 18 -33 56 -105 85 -160 103 -195 143
-271 175 -330 33 -61 124 -233 157 -295 17 -33 18 -126 18 -2375 0 -1808 3
-2344 12 -2353 9 -9 478 -12 2050 -12 l2038 0 0 2345 0 2345 66 128 c37 70 79
150 94 177 15 28 55 104 90 170 34 66 70 134 80 150 10 17 46 84 80 150 35 66
75 143 90 170 15 28 51 95 80 150 29 55 67 127 85 160 18 33 58 110 90 170 32
61 74 139 93 175 19 36 54 101 77 145 23 44 57 107 75 140 61 114 113 210 182
345 39 74 78 149 88 165 16 28 47 86 153 286 25 46 59 111 77 144 18 33 54
101 80 150 120 227 139 263 162 305 14 25 50 92 80 150 93 176 191 363 291
550 22 41 50 93 62 115 12 22 55 103 95 180 40 77 85 163 100 190 71 130 183
340 232 435 30 58 65 122 77 144 12 21 50 93 85 160 35 66 78 148 96 181 61
113 107 200 157 295 28 52 72 136 98 185 27 50 65 122 85 160 20 39 56 106 80
150 23 44 63 118 87 165 25 47 62 117 82 155 54 101 128 241 206 390 37 72 78
148 90 170 23 41 67 125 170 320 32 61 62 111 67 113 4 2 8 11 8 21 0 9 4 21
9 27 4 5 39 68 76 139 82 156 149 285 200 380 20 39 58 108 83 155 24 47 58
110 75 140 17 30 46 87 65 125 19 39 39 72 43 73 5 2 9 8 9 13 0 5 37 78 81
162 45 83 103 193 129 242 60 116 182 344 197 370 29 51 63 129 57 134 -3 3
-918 7 -2034 9 l-2029 2 -19 -27 c-10 -16 -44 -75 -74 -133 -31 -58 -66 -123
-78 -145 -12 -22 -49 -92 -82 -155 -33 -63 -64 -119 -68 -125 -4 -5 -38 -68
-75 -139 -37 -72 -84 -162 -105 -200 -127 -237 -260 -487 -260 -490 0 -2 -16
-33 -36 -68 -37 -65 -83 -151 -184 -343 -68 -131 -176 -334 -189 -355 -6 -8
-21 -38 -35 -66 -15 -28 -50 -96 -79 -150 -30 -55 -76 -142 -104 -194 -28 -52
-122 -230 -210 -395 -88 -165 -186 -349 -218 -410 -32 -60 -65 -123 -75 -140
-10 -16 -43 -79 -75 -140 -32 -60 -92 -173 -133 -250 -41 -77 -97 -183 -124
-235 -28 -52 -63 -117 -78 -145 -15 -27 -51 -95 -80 -150 -116 -220 -144 -272
-170 -320 -28 -52 -75 -139 -175 -330 -32 -60 -69 -130 -83 -155 -14 -25 -52
-97 -85 -160 -71 -135 -95 -172 -110 -167 -6 2 -26 32 -45 68 -18 35 -53 100
-76 144 -24 44 -72 134 -106 200 -34 66 -73 138 -85 160 -26 47 -81 150 -155
290 -77 146 -189 356 -230 430 -15 28 -55 102 -88 165 -32 63 -71 135 -84 160
-30 55 -87 161 -158 295 -49 92 -78 147 -165 310 -18 33 -56 105 -85 160 -92
175 -210 395 -248 465 -13 25 -49 92 -80 150 -30 58 -85 161 -122 230 -37 69
-87 163 -112 210 -25 47 -67 126 -93 175 -27 50 -64 119 -83 155 -53 100 -121
229 -157 295 -18 33 -54 101 -80 150 -26 50 -62 117 -80 150 -18 33 -54 101
-80 150 -26 50 -55 104 -65 120 -9 17 -43 80 -75 140 -32 61 -74 142 -95 180
-105 197 -136 255 -165 310 -64 119 -123 231 -145 273 -12 23 -30 47 -40 52
-25 13 -4039 13 -4060 0z"/>
<path d="M1290 15854 c-7 -16 -9 -679 -8 -1857 l3 -1832 3545 -5 c3267 -5
3552 -7 3630 -22 99 -20 196 -44 225 -57 11 -5 36 -15 55 -22 77 -27 240 -115
330 -177 111 -77 298 -259 361 -352 185 -273 235 -398 288 -720 14 -84 14
-306 0 -390 -43 -263 -90 -401 -196 -578 -64 -106 -108 -167 -188 -256 -240
-271 -521 -427 -900 -498 -41 -7 -442 -13 -1274 -17 l-1215 -6 -6 -25 c-4 -14
-23 -59 -43 -100 -19 -41 -58 -133 -87 -205 -28 -71 -65 -161 -81 -200 -17
-38 -39 -95 -49 -125 -23 -68 -65 -168 -74 -177 -3 -3 -6 -12 -6 -20 0 -13
-30 -86 -52 -127 -5 -10 -18 -44 -28 -75 -11 -31 -40 -105 -65 -166 -26 -60
-49 -119 -52 -130 -4 -11 -9 -22 -12 -25 -3 -3 -14 -30 -25 -60 -10 -30 -27
-73 -37 -94 -11 -22 -19 -46 -19 -53 0 -8 -9 -33 -20 -55 -11 -23 -20 -45 -20
-50 0 -4 -11 -31 -24 -60 -13 -29 -36 -84 -51 -123 -16 -38 -36 -88 -46 -110
-9 -22 -27 -67 -39 -100 -13 -33 -29 -76 -37 -95 -22 -53 -30 -71 -47 -117 -8
-23 -24 -61 -35 -85 -11 -24 -27 -65 -36 -92 -8 -26 -25 -69 -36 -95 -31 -72
-36 -82 -60 -146 -12 -33 -25 -64 -29 -70 -4 -5 -14 -32 -24 -60 -19 -53 -82
-209 -97 -237 -5 -10 -9 -22 -9 -28 0 -5 -11 -33 -24 -62 -13 -29 -47 -114
-76 -188 -48 -124 -80 -202 -116 -287 -33 -74 -30 -89 22 -151 53 -61 99 -118
179 -217 28 -34 95 -116 150 -181 54 -66 143 -173 197 -239 54 -66 107 -129
117 -141 10 -12 63 -75 117 -140 53 -65 114 -139 135 -164 45 -53 140 -168
189 -229 19 -24 82 -100 140 -169 58 -68 114 -136 124 -151 11 -14 45 -55 76
-91 30 -36 96 -114 145 -175 49 -60 94 -115 100 -122 5 -6 22 -27 37 -45 15
-18 89 -107 164 -198 75 -91 153 -185 173 -209 20 -25 41 -49 46 -55 6 -6 28
-34 50 -61 21 -28 42 -52 45 -55 3 -3 24 -27 45 -55 22 -27 50 -61 61 -75 65
-76 109 -129 204 -245 58 -71 110 -133 115 -139 6 -6 28 -33 50 -61 46 -57 40
-50 180 -217 l106 -128 2589 0 c1575 0 2591 4 2595 9 7 12 -71 102 -360 411
-109 117 -252 273 -370 405 -54 61 -126 139 -160 175 -34 36 -84 90 -111 120
-26 30 -76 84 -109 120 -227 246 -288 312 -340 370 -32 36 -104 115 -160 175
-85 93 -132 144 -200 221 -5 6 -44 47 -85 90 -41 44 -131 142 -200 219 -69 76
-157 173 -196 214 -38 42 -124 135 -189 206 -66 72 -145 157 -176 190 -31 33
-74 80 -95 105 -32 37 -75 84 -160 174 -5 6 -34 38 -64 71 -29 33 -81 89 -114
125 -152 162 -286 311 -286 319 0 16 26 28 100 46 41 10 95 24 120 31 25 7 83
23 130 34 163 41 482 153 646 228 60 27 132 60 159 72 78 35 152 73 255 130
52 29 124 68 160 87 69 37 444 284 495 326 17 14 75 61 130 105 177 141 480
413 549 493 16 19 80 90 141 159 61 69 133 154 160 190 27 36 87 114 132 174
202 265 485 758 586 1022 19 49 44 110 54 135 32 70 68 172 122 339 28 85 57
175 65 200 8 25 24 92 36 150 11 58 25 116 29 130 8 22 21 91 62 335 6 39 15
104 20 145 4 41 13 109 18 150 6 41 13 233 17 425 6 349 2 439 -35 760 -17
139 -74 443 -113 595 -21 85 -43 171 -48 190 -22 95 -162 469 -264 706 -50
118 -142 295 -241 464 -21 36 -43 74 -49 85 -6 11 -30 48 -54 83 -23 35 -42
66 -42 69 0 16 -222 318 -320 436 -63 76 -132 159 -154 185 -87 107 -415 430
-511 503 -16 13 -32 26 -35 30 -3 3 -12 10 -22 15 -9 5 -34 25 -55 44 -21 19
-49 43 -63 52 -14 9 -34 24 -45 35 -32 30 -369 264 -417 289 -14 7 -33 20 -41
28 -8 8 -45 31 -83 51 -38 20 -85 45 -104 57 -41 24 -333 171 -440 222 -41 19
-120 51 -175 71 -233 86 -354 128 -415 145 -36 10 -105 30 -155 44 -49 15
-133 36 -185 47 -52 12 -113 25 -135 30 -104 24 -319 58 -400 64 -49 4 -94 9
-98 12 -4 2 -92 11 -195 18 -148 10 -919 13 -3720 14 l-3532 1 -10 -26z"/>
<path d="M15230 15861 c-7 -14 -10 -2234 -10 -7085 l0 -7066 2038 0 c1572 0
2041 3 2050 12 9 9 12 567 12 2450 0 2036 2 2438 13 2438 13 0 875 -863 2082
-2081 684 -691 2640 -2661 2725 -2745 l75 -74 2403 0 c2049 0 2402 2 2402 14
0 13 -154 168 -799 801 -157 154 -416 409 -576 566 -159 157 -386 380 -504
495 -118 115 -390 382 -605 594 -215 212 -476 469 -581 570 -104 102 -213 208
-241 235 -68 67 -1086 1068 -1499 1475 -506 499 -854 840 -921 906 -34 32
-288 282 -565 554 -277 272 -588 578 -691 679 -104 102 -188 192 -188 201 0 9
98 113 218 230 119 117 334 328 477 469 143 140 377 370 520 511 143 140 505
496 805 791 300 295 565 555 590 579 48 46 868 853 1479 1456 201 198 389 382
416 408 28 27 178 175 335 330 264 260 1102 1083 1475 1447 518 506 847 838
841 848 -5 8 -646 11 -2391 11 l-2384 0 -43 -38 c-51 -44 -1144 -1142 -4133
-4149 -603 -608 -730 -729 -736 -710 0 1 -3 1098 -5 2437 -3 1339 -7 2441 -9
2448 -4 9 -419 12 -2034 12 -1997 0 -2030 0 -2041 -19z"/>
</g>
</svg>
